<svg xmlns="http://www.w3.org/2000/svg" viewBox="0 0 500 500"><g id="freepik--background-simple--inject-9"><path d="M272,139.05c-45.71,49.78-203-25-194.37,92.81C84.71,328,196.38,330.3,254,284.24c58.61-46.81,173.17,3.71,161.7-113.57-3.52-35.88-23.63-80.88-60.64-93.1C296.19,58.11,299.9,108.7,272,139.05Z" style="fill:#407BFF"></path><path d="M272,139.05c-45.71,49.78-203-25-194.37,92.81C84.71,328,196.38,330.3,254,284.24c58.61-46.81,173.17,3.71,161.7-113.57-3.52-35.88-23.63-80.88-60.64-93.1C296.19,58.11,299.9,108.7,272,139.05Z" style="fill:#fff;opacity:0.9"></path></g><g id="freepik--Shadow--inject-9"><ellipse id="freepik--path--inject-9" cx="250" cy="416.24" rx="193.89" ry="11.32" style="fill:#f5f5f5"></ellipse></g><g id="freepik--cloud-2--inject-9"><path d="M385.72,230.73l-1,0a46.51,46.51,0,0,0-79.7-.53,17.35,17.35,0,0,0-27.75,13.91c0,.55,0,1.1.08,1.64A27.63,27.63,0,0,0,278.87,301H385.72a35.13,35.13,0,1,0,0-70.25Z" style="fill:#407BFF"></path><path d="M385.72,230.73l-1,0a46.51,46.51,0,0,0-79.7-.53,17.35,17.35,0,0,0-27.75,13.91c0,.55,0,1.1.08,1.64A27.63,27.63,0,0,0,278.87,301H385.72a35.13,35.13,0,1,0,0-70.25Z" style="opacity:0.5"></path></g><g id="freepik--Character--inject-9"><polygon points="305.54 402.69 297.96 400.61 300.78 382.49 308.36 384.58 305.54 402.69" style="fill:#7f3e3b"></polygon><polygon points="361.49 407.73 353.63 407.73 351.67 389.52 359.53 389.52 361.49 407.73" style="fill:#7f3e3b"></polygon><path d="M353,406.82h9.59a.69.69,0,0,1,.67.54l1.55,7a1.16,1.16,0,0,1-1.15,1.4c-3.09-.05-5.34-.24-9.22-.24-2.39,0-9.6.25-12.9.25s-3.73-3.26-2.38-3.56c6.06-1.32,10.62-3.15,12.56-4.89A1.9,1.9,0,0,1,353,406.82Z" style="fill:#263238"></path><path d="M298.26,399.74l8.28,2.28a.7.7,0,0,1,.5.7l-.36,7.15a1.15,1.15,0,0,1-1.46,1.05c-3-.88-7.24-2.24-11-3.27-4.39-1.21-8.24-2-13.39-3.44-3.11-.86-3.11-4.24-1.73-4.17,6.29.34,11.17,1.54,17.17-.21A3.64,3.64,0,0,1,298.26,399.74Z" style="fill:#263238"></path><path d="M329.22,169.22c-2.91,5.05-6,9.85-9.19,14.63s-6.67,9.43-10.44,14c-1,1.12-1.93,2.26-3,3.36l-.78.84-.41.44a7.66,7.66,0,0,1-1.07.93,9.75,9.75,0,0,1-4.07,1.73,17.75,17.75,0,0,1-5.87-.06,32.79,32.79,0,0,1-4.71-1.11,72.38,72.38,0,0,1-16.15-7.48L276,191.1a142.69,142.69,0,0,0,15.82,3.69,35.24,35.24,0,0,0,3.64.34,7.27,7.27,0,0,0,2.58-.26c.2-.07.14-.16-.22.06a1.67,1.67,0,0,0-.28.22l.29-.35.61-.76c.84-1,1.63-2.1,2.44-3.14,3.2-4.35,6.27-9,9.26-13.62s6-9.42,8.83-14.09Z" style="fill:#7f3e3b"></path><path d="M332.12,163.45c2.88,6.94-12.19,27.16-12.19,27.16l-15.27-9.34s4.58-9.94,9.6-18.27C317.7,157.29,328.87,155.61,332.12,163.45Z" style="fill:#407BFF"></path><path d="M322.08,165.08,328.56,177a121.17,121.17,0,0,1-8.63,13.6l-8.19-5C313.41,179.9,317.1,169.11,322.08,165.08Z" style="opacity:0.2"></path><path d="M274.89,190.76l-6.42-2.15,3.39,9.91a8.45,8.45,0,0,0,6.49-2.33l-.4-2.59A3.34,3.34,0,0,0,274.89,190.76Z" style="fill:#7f3e3b"></path><polygon points="264.61 190.61 262.88 196.38 271.86 198.52 268.47 188.61 264.61 190.61" style="fill:#7f3e3b"></polygon><polygon points="300.78 382.5 299.33 391.83 306.91 393.92 308.37 384.59 300.78 382.5" style="opacity:0.2"></polygon><polygon points="359.53 389.53 351.67 389.53 352.68 398.92 360.55 398.92 359.53 389.53" style="opacity:0.2"></polygon><path d="M364.17,161.3a177.3,177.3,0,0,0-5,25.87c-.75,6.09-1.19,11.9-1.47,17.18-.65,12.36-.38,21.78-.75,25-6.15-.42-29.32-2-41.95-2.92-5.13-40.14,3.13-62.81,4.88-67.05a1.46,1.46,0,0,1,1.08-.87,84.72,84.72,0,0,1,9.27-1.1c.72,0,1.44-.07,2.17-.08a155,155,0,0,1,17.84,1.24c1.12.13,2.26.3,3.36.48C359.23,159.93,364.17,161.3,364.17,161.3Z" style="fill:#407BFF"></path><path d="M353.58,172.62a33.18,33.18,0,0,0,5.19,18.18c.12-1.2.26-2.41.41-3.63.56-4.58,1.28-9.32,2.24-14.11Z" style="opacity:0.2"></path><path d="M349.88,138.33c-1.52,5.67-3.38,16.1.37,20.21a17.87,17.87,0,0,1-14.13,4.51c-4.93-.45-4.94-3.92-3.71-5.75,6.51-1.08,6.68-5.84,5.87-10.38Z" style="fill:#7f3e3b"></path><path d="M345.15,141.84l-6.86,5.07a19.75,19.75,0,0,1,.33,3.21c2.47-.18,6-2.63,6.45-5.17A8.5,8.5,0,0,0,345.15,141.84Z" style="opacity:0.2"></path><path d="M351.17,129.75c-1,7.73-1.22,12.31-5.43,16-6.32,5.59-15.66,1.36-17-6.53-1.18-7.1.69-18.56,8.51-21.12A10.65,10.65,0,0,1,351.17,129.75Z" style="fill:#7f3e3b"></path><path d="M349.63,136.56c-3.07-2.45-4.33-18.75,3.19-18C359.24,119.11,366.28,127.51,349.63,136.56Z" style="fill:#263238"></path><path d="M351,122.89c-9.72,2.61-30.39-4.25-24.78-10.11C333.72,104.94,347.33,116.89,351,122.89Z" style="fill:#263238"></path><path d="M355.14,124.94c-7.86-1.15-24.16-16.36-15.7-17.16C350.11,106.77,354.36,119.44,355.14,124.94Z" style="fill:#263238"></path><path d="M353.69,120.38h-.08a.5.5,0,0,1-.42-.57,18.24,18.24,0,0,0-.61-7.14.5.5,0,0,1,1-.28,19.24,19.24,0,0,1,.64,7.58A.5.5,0,0,1,353.69,120.38Z" style="fill:#263238"></path><path d="M354.08,138.56a7.41,7.41,0,0,1-4.84,2.94c-2.57.38-3.53-2-2.55-4.26.89-2,3.3-4.68,5.75-4S355.48,136.6,354.08,138.56Z" style="fill:#7f3e3b"></path><path d="M297,389.3l12.84,3.53s9.18-49.27,11.48-73.66c.7-7.42,2.66-17.76,5.13-28.82,3.11-13.93,7-29,10.22-40.8,3.37-12.43,5.94-21.22,5.94-21.22L315,226.4s-16.72,65.21-17.53,89.2C296.62,340.54,297,389.3,297,389.3Z" style="fill:#407BFF"></path><path d="M297,389.3l12.84,3.53s9.18-49.27,11.48-73.66c.7-7.42,2.66-17.76,5.13-28.82,3.11-13.93,7-29,10.22-40.8,3.37-12.43,5.94-21.22,5.94-21.22L315,226.4s-16.72,65.21-17.53,89.2C296.62,340.54,297,389.3,297,389.3Z" style="fill:#fafafa;opacity:0.7000000000000001"></path><path d="M326.42,290.35c3.11-13.93,7-29,10.22-40.8l-2.86-6.17C326.93,251.51,325.09,276.68,326.42,290.35Z" style="opacity:0.2"></path><path d="M329.88,227.44s3,67.32,6.3,90.12c3.63,25,12.87,79.54,12.87,79.54h14.4s-4.11-52-6.87-76.43c-3.15-27.85.38-91.34.38-91.34Z" style="fill:#407BFF"></path><path d="M329.88,227.44s3,67.32,6.3,90.12c3.63,25,12.87,79.54,12.87,79.54h14.4s-4.11-52-6.87-76.43c-3.15-27.85.38-91.34.38-91.34Z" style="fill:#fafafa;opacity:0.7000000000000001"></path><polygon points="347.32 397.41 364.28 397.41 364.28 392.34 345.32 392.01 347.32 397.41" style="fill:#407BFF"></polygon><polygon points="295.28 389.15 310.57 393.37 311.94 388.43 294.91 383.46 295.28 389.15" style="fill:#407BFF"></polygon><path d="M339.23,131.1c0,.63-.41,1.12-.83,1.09s-.71-.57-.67-1.2.42-1.12.83-1.09S339.27,130.46,339.23,131.1Z" style="fill:#263238"></path><path d="M332.08,130.6c-.05.63-.42,1.12-.83,1.09s-.71-.57-.67-1.2.42-1.12.83-1.09S332.12,130,332.08,130.6Z" style="fill:#263238"></path><path d="M334.33,131.07a22.57,22.57,0,0,1-3.4,5.2,3.67,3.67,0,0,0,3,.78Z" style="fill:#630f0f"></path><path d="M341.61,128.94a.39.39,0,0,1-.35-.17,3,3,0,0,0-2.29-1.41.37.37,0,1,1,0-.74,3.69,3.69,0,0,1,2.91,1.74.37.37,0,0,1-.1.52A.58.58,0,0,1,341.61,128.94Z" style="fill:#263238"></path><path d="M336.68,140.14h0a5.71,5.71,0,0,0,4.63-2.52.19.19,0,0,0-.07-.27.19.19,0,0,0-.27.07,5.47,5.47,0,0,1-4.31,2.32.19.19,0,0,0-.19.21A.19.19,0,0,0,336.68,140.14Z" style="fill:#263238"></path><path d="M329.19,127.92a.38.38,0,0,1-.37-.56,3.69,3.69,0,0,1,2.82-1.9.37.37,0,0,1,.39.35.38.38,0,0,1-.35.39h0a3,3,0,0,0-2.21,1.54A.38.38,0,0,1,329.19,127.92Z" style="fill:#263238"></path><path d="M350.38,408.2a2.4,2.4,0,0,1-1.52-.4,1.12,1.12,0,0,1-.38-1,.56.56,0,0,1,.32-.52c.87-.45,3.41,1.11,3.69,1.29a.17.17,0,0,1,.09.18.21.21,0,0,1-.14.16A9.41,9.41,0,0,1,350.38,408.2Zm-1.17-1.63a.43.43,0,0,0-.24.05c-.05,0-.11.07-.12.22a.77.77,0,0,0,.25.67,3.82,3.82,0,0,0,2.8.14A7.63,7.63,0,0,0,349.21,406.57Z" style="fill:#407BFF"></path><path d="M352.39,407.92l-.09,0c-.81-.44-2.38-2.17-2.22-3a.61.61,0,0,1,.6-.49,1,1,0,0,1,.79.24c.91.74,1.1,3,1.11,3.11a.2.2,0,0,1-.09.17A.17.17,0,0,1,352.39,407.92Zm-1.58-3.19h-.09c-.24,0-.26.14-.27.19-.1.51.9,1.82,1.71,2.43a4.41,4.41,0,0,0-.93-2.46A.64.64,0,0,0,350.81,404.73Z" style="fill:#407BFF"></path><path d="M297.23,400.58h0c-1.29-.09-3.55-.39-4.17-1.36a1,1,0,0,1-.1-1,.58.58,0,0,1,.43-.4c1.05-.24,3.68,2.13,4,2.4a.2.2,0,0,1,0,.21A.17.17,0,0,1,297.23,400.58Zm-3.73-2.36h-.05a.21.21,0,0,0-.17.17.64.64,0,0,0,.06.63c.35.54,1.58,1,3.33,1.14C295.61,399.25,294.11,398.15,293.5,398.22Z" style="fill:#407BFF"></path><path d="M297.23,400.58a.18.18,0,0,1-.14,0c-.8-.66-2.16-2.8-1.79-3.62.09-.19.31-.4.81-.32a1.36,1.36,0,0,1,.91.59c.75,1.05.39,3.15.37,3.24a.16.16,0,0,1-.12.14Zm-1.4-3.62a.21.21,0,0,0-.19.12c-.22.49.65,2.11,1.43,2.93a4.33,4.33,0,0,0-.35-2.61,1,1,0,0,0-.67-.43A.86.86,0,0,0,295.83,397Z" style="fill:#407BFF"></path><path d="M365.36,165.55a170.67,170.67,0,0,1,10.19,14.25,125.25,125.25,0,0,1,8.61,15.55,10,10,0,0,1,.91,4.42,13.06,13.06,0,0,1-.5,3.35,24.36,24.36,0,0,1-2.08,5,51.34,51.34,0,0,1-5.3,7.67,96.43,96.43,0,0,1-12.46,12.53l-4.24-4.11c1.62-2.21,3.32-4.48,4.88-6.76s3.12-4.57,4.52-6.87a50.59,50.59,0,0,0,3.63-6.84,13.38,13.38,0,0,0,.93-3,3,3,0,0,0,0-.87c0-.15-.09,0,0,.28-1.29-2.31-2.72-4.62-4.17-6.92s-3-4.57-4.61-6.85c-3.17-4.51-6.48-9.08-9.74-13.43Z" style="fill:#7f3e3b"></path><path d="M363.93,161.26c7.19,2.2,14.34,19.5,14.34,19.5L365.5,193.92s-7.62-9.91-12-18.57C348.68,165.91,355.22,158.6,363.93,161.26Z" style="fill:#407BFF"></path><path d="M363.24,223.14l-8-.24,3.91,9.25s6.84-1.31,6.56-5Z" style="fill:#7f3e3b"></path><polygon points="349.94 226.75 353.54 234.25 359.17 232.15 355.26 222.9 349.94 226.75" style="fill:#7f3e3b"></polygon></g><g id="freepik--cloud-1--inject-9"><path d="M160.37,214.6l-.48-.88c2.07-1.14,4.22-2.19,6.39-3.13l.4.92C164.54,212.44,162.41,213.48,160.37,214.6Z" style="fill:#407BFF"></path><path d="M143.27,227.49l-.71-.7a75.35,75.35,0,0,1,11.92-9.8l.55.84A74.74,74.74,0,0,0,143.27,227.49Z" style="fill:#407BFF"></path><path d="M133,242.85c.5,0,1,0,1.51,0a71.28,71.28,0,0,1,122.14-.81,26.59,26.59,0,0,1,42.53,21.31c0,.85-.05,1.68-.13,2.51a42.34,42.34,0,0,1-2.31,84.61H133a53.83,53.83,0,1,1,0-107.66Z" style="fill:#407BFF"></path><path d="M274.69,202.1l17,97.43a5.87,5.87,0,0,1-4.77,6.78l-61,10.64a5.85,5.85,0,0,1-6.78-4.77l-17-97.43Z" style="opacity:0.2"></path><path d="M301.43,287.36,278.71,198.1l-22.63-7.3L204.18,204a4.31,4.31,0,0,0-3.12,5.24l24.78,97.35a4.32,4.32,0,0,0,5.24,3.12l67.23-17.12A4.31,4.31,0,0,0,301.43,287.36Z" style="fill:#fff"></path><path d="M230,310.86a5.33,5.33,0,0,1-5.16-4L200.08,209.5a5.32,5.32,0,0,1,3.85-6.47l51.9-13.21a1,1,0,0,1,.56,0l22.63,7.3a1,1,0,0,1,.67.72l22.72,89.25a5.34,5.34,0,0,1-3.85,6.47l-67.23,17.11A5.42,5.42,0,0,1,230,310.86Zm26-119L204.42,205a3.3,3.3,0,0,0-2.38,4l24.78,97.35a3.24,3.24,0,0,0,1.51,2,3.27,3.27,0,0,0,2.5.36l67.23-17.12a3.24,3.24,0,0,0,2-1.51,3.27,3.27,0,0,0,.36-2.5l-22.58-88.72Z" style="fill:#407BFF"></path><path d="M278.71,198.1l-22.63-7.3,11.29,11.84a4.31,4.31,0,0,0,6,.24Z" style="fill:#e0e0e0"></path><path d="M270.49,205a5.31,5.31,0,0,1-3.85-1.66l-11.29-11.85a1,1,0,0,1,1-1.65l22.63,7.3a1,1,0,0,1,.68.76,1,1,0,0,1-.32,1L274,203.63A5.28,5.28,0,0,1,270.49,205Zm-10.94-12,8.55,9a3.28,3.28,0,0,0,4.59.18l4-3.61Z" style="fill:#407BFF"></path><path d="M253.25,267.84l10.69-10.42,1.18,4.64a13.25,13.25,0,0,0-8.61-25l-1.23-4.84a18.24,18.24,0,0,1,11.08,34.69l1.26,4.94Z" style="fill:#407BFF"></path><path d="M251,235.66l-10.68,10.43-1.18-4.64a13.25,13.25,0,0,0,8.61,25l1.23,4.83a18.24,18.24,0,0,1-11.09-34.68l-1.25-4.95Z" style="fill:#407BFF"></path></g></svg>